<svg xmlns="http://www.w3.org/2000/svg" width="90" height="90" viewBox="0 0 24 24"><path fill="none" stroke="#48bb78" stroke-linecap="round" stroke-linejoin="round" stroke-width="1.5" d="M4.125 9.5v-6M6 3.5V2m0 9V9.5m-1.875-3h3.75m0 0C8.496 6.5 9 7.004 9 7.625v.75C9 8.996 8.496 9.5 7.875 9.5H3m4.875-3C8.496 6.5 9 5.996 9 5.375v-.75C9 4.004 8.496 3.5 7.875 3.5H3m12 14l3-4.5l3 4.5m-6 0l3 4.5l3-4.5m-6 0l3 1.125l3-1.125M12 5c2.828 0 5.243 0 6.121.799S19 7.429 19 10l-2-1m-5 10c-2.828 0-5.243 0-6.121-.799S5 16.571 5 14l2 1" color="currentColor"/></svg>